<?xml version="1.0" encoding="UTF-8"?>
<svg id="Layer_2" data-name="Layer 2" xmlns="http://www.w3.org/2000/svg" viewBox="0 0 452.64 160.47">
  <defs>
    <style>
      .cls-1 {
        fill: #111;
      }

      .cls-2 {
        fill: #3744c7;
      }
    </style>
  </defs>
  <g id="Layer_1-2" data-name="Layer 1">
    <g id="SvgjsG14408">
      <path class="cls-1" d="m29.13,0h10.53v63.46h-3.61V3.61h-3.31v62.96h10.13V0h3.61v70.17h-17.34S29.13,0,29.13,0Zm107.37,41.6L95.49,0h-5.01l49.62,50.43V7.02h-3.61s0,34.59,0,34.59Zm-3.31-8.02V3.51h10.23v63.06h-1.7l-.4-.4-45.91-46.52v50.53h10.53v-29.57l-3.71-3.81v29.77h-3.21V28.47l41.6,41.7h6.42V0h-17.44v29.67l3.61,3.91Zm-41.1,36.59V11.53l48.02,48.72v-5.31L88.58,2.91v67.27h3.51ZM187.42,0h3.61v66.57h9.82v-25.06h23.46v-3.31h-23.36v-3.61h26.97v10.53h-23.46v25.06h-17.04S187.42,0,187.42,0ZM194.14,0h38.7v17.04h-25.06v-3.61h21.45V3.61h-31.58v60.15h-3.51S194.14,0,194.14,0Zm6.72,6.52h25.26v3.61h-21.65v17.74h23.46v3.71h-27.07V6.52Zm122.91,60.05h-11.53l-13.83-25.76-9.32.1v25.66h-10.13V0h-3.61v70.17h17.44v-25.76h3.51l13.73,25.76h19.75l-13.83-25.86-3.31,1.3,11.13,20.95Zm-23.86-62.96c14.54,0,22.76,6.52,22.76,18.45,0,10.83-6.52,17.44-17.84,18.65l-2.71.3,12.53,23.16h4.11l-10.93-20.35c12.03-2.11,18.45-9.42,18.45-21.75,0-4.11-.9-7.82-2.61-11.13-4.01-7.12-12.23-10.93-23.76-10.93h-17.74v64.06h3.61V3.61s14.14,0,14.14,0Zm-.8,34.08c13.73,0,20.25-4.71,20.25-15.14s-6.82-15.54-17.74-15.54h-12.63v10.53h11.53c5.31,0,8.02,1.5,8.02,4.51,0,3.51-3.31,5.21-10.02,5.21h-5.81v-6.22h-3.71v9.82h9.52c8.92,0,13.63-3.11,13.63-8.82,0-1.8-.4-3.21-1.3-4.31-1.7-2.51-5.11-3.71-10.33-3.71h-7.82v-3.41h8.92c8.92,0,14.14,4.31,14.14,11.93s-5.31,11.63-16.64,11.63h-10.02v3.51s10.02,0,10.02,0Zm78.6,26.27h4.41l3.51-8.42,26.17.1,6.42,14.54,18.45-.1L405.06,0h-6.42l-31.38,70.07h19.55l3.41-8.02h19.95l-1.5-3.41h-20.65l-3.21,7.92h-11.93l27.77-63.16h2.41l27.87,63.16h-10.63l-6.42-14.34h-31.08l-5.11,11.73Zm11.93-17.64l12.23-29.17,20.55,46.72h4.11l-24.66-54.94-18.04,40.5h29.07l-11.03-24.36-7.62,18.35h3.91l3.71-9.12,5.51,12.03h-17.74ZM5.59,97.6h10.71l16.5,34.32,1.99-4.08-16.31-33.76H0l31.95,66.37h1.61l30.44-62.87h3.32l-30.53,62.87h3.89l32.24-66.37h-11.09l-29.01,59.74L5.59,97.6Zm27.31,49.69l25.7-53.19h-3.98l-21.71,45.13-18.68-38.59h-3.89l22.57,46.65Zm76.8-53.19h9.96v60.02h-3.41v-56.61h-3.13v59.55h9.58v-62.96h3.41v66.37h-16.4v-66.37h0Zm69.5,50.73c4.65,2.09,8.72,3.13,12.14,3.13,1.71,0,2.75-.09,3.22-.38,2.18-.57,3.7-1.8,4.65-3.7l.09-.19c.47-.85.66-1.9.66-3.22,0-.66-.19-1.42-.57-2.37l-.19-.38c-1.23-2.56-3.98-4.27-9.01-5.88l-.95-.28-.28-.09c-7.68-2.28-12.61-5.88-14.98-10.9-.95-1.9-1.42-3.98-1.42-6.26s.47-4.65,1.42-7.02l.19-.38c2.18-4.36,5.69-7.21,10.34-8.63,3.32-.47,5.22-.76,5.69-.76,6.45,0,13.94,2.65,22.38,7.87l1.8-2.94c-9.2-5.59-17.16-8.34-24.08-8.34-2.75,0-5.03.28-6.64.95-5.59,1.52-9.77,4.93-12.52,10.34l-.28.66c-1.14,2.75-1.71,5.5-1.71,8.25,0,2.94.57,5.5,1.71,7.78,2.94,5.88,8.63,10.05,17.16,12.61l1.14.38c3.89,1.23,6.16,2.56,7.02,4.08l.09.19c.19.28.28.66.28,1.14,0,.85-.09,1.42-.38,1.9-.66,1.52-2.28,2.28-4.84,2.28-4.08,0-9.96-2.09-14.51-5.03l-1.42-.85-8.34,13.46,1.42.85c6.73,4.55,15.65,7.4,22.85,7.4,2.37,0,4.55-.28,6.54-.85,5.59-1.61,9.77-5.12,12.52-10.43l.38-.66c1.14-2.94,1.71-5.69,1.71-8.25,0-2.28-.76-5.12-2.18-8.63-2.56-5.12-7.96-9.01-16.4-11.66l-1.33-.38c-2.65-.85-4.46-1.71-5.31-2.37-1.14-.95-1.8-1.61-2.09-1.99l-.19-1.04c0-.95.19-1.8.66-2.47.76-1.42,1.52-1.8,4.55-1.8,4.08,0,9.96,2.09,14.51,5.03l1.42.85,5.12-8.15-1.52-.85c-5.78-3.79-13.65-6.45-19.44-6.45-2.56,0-4.17.19-5.03.66-3.89,1.14-6.83,3.6-8.72,7.3-.85,1.61-1.23,3.51-1.23,5.88,0,1.8.38,3.51,1.14,5.12,1.99,4.27,6.45,7.4,13.37,9.48l1.23.38,2.56.95c1.42.57,2.94,1.33,4.65,2.28,3.03,1.8,4.55,4.36,4.55,7.78,0,1.9-.47,3.7-1.33,5.31-1.99,3.51-5.4,5.31-10.15,5.31-3.22,0-7.78-1.23-13.65-3.6l-1.61,2.75-.09.19c5.4,2.75,10.52,4.08,15.46,4.08,2.75,0,5.31-.57,7.59-1.71,4.46-2.18,7.21-6.73,7.21-12.42,0-9.01-6.92-11.66-14.22-14.22l-1.23-.38c-5.97-1.8-9.67-4.27-11.19-7.59-.57-1.14-.85-2.37-.85-3.79,0-1.8.28-3.22.95-4.46,1.52-2.75,3.7-4.55,6.54-5.4l3.79-.47c5.03,0,10.52,1.71,16.5,5.03l-1.52,2.37c-6.16-3.03-11.09-4.55-14.7-4.55-1.8,0-2.84.09-3.32.38-2.09.57-3.6,1.8-4.65,3.79l-.09.19c-.47.85-.66,1.99-.66,3.41,0,1.04.19,1.8.47,2.28,1.23,2.56,4.46,4.65,9.58,6.16l1.23.38,2.37.76c.28.09,1.8.76,4.55,2.09,3.7,2.09,6.35,4.74,7.87,7.87.95,1.9,1.42,3.98,1.42,6.26,0,2.75-.47,5.12-1.52,7.11l-.19.38c-2.18,4.36-5.69,7.21-10.34,8.63-3.32.47-5.22.76-5.69.76-4.84,0-11.09-1.8-16.88-4.55l-2.65-1.42,4.74-7.68,2.65,1.42Zm72.82-50.73h9.96v60.02h-3.41v-56.61h-3.13v59.55h9.58v-62.96h3.41v66.37h-16.4v-66.37Z"/>
    </g>
    <g id="SvgjsG14409">
      <path class="cls-2" d="m333.55,94.09c-18.12,0-32.85,14.74-32.85,32.85s14.74,32.85,32.85,32.85,32.85-14.74,32.85-32.85-14.74-32.85-32.85-32.85Zm0,2.68c2.06,0,4.07.21,6.02.6l-19.99,19.99v-17.14s0,0,0,0c4.18-2.2,8.93-3.45,13.98-3.45Zm-5.79,16.2h11.58l8.19,8.19v11.58l-8.19,8.19h-11.58l-8.19-8.19v-11.58l8.19-8.19Zm-10.87-11.17v28.25l-12.12-12.12s-.01,0-.02-.01c2.09-6.66,6.44-12.33,12.14-16.12Zm-10.07,39.12c-2.2-4.18-3.45-8.94-3.45-13.98,0-2.06.21-4.07.6-6.02l13.31,13.31s0,0,0,0l6.68,6.68h-17.14s0,0,0,0Zm17.7,14.82c-6.66-2.09-12.33-6.44-16.12-12.14h28.26l-12.12,12.12s0,.01-.01.02Zm9.03,1.38c-2.06,0-4.07-.21-6.02-.6l19.99-19.99v17.14s0,0,0,0c-4.18,2.2-8.94,3.45-13.98,3.45Zm16.66-5.03v-28.25l12.12,12.12s.01,0,.02.01c-2.09,6.66-6.44,12.33-12.14,16.12Zm10.07-39.12c2.2,4.18,3.45,8.93,3.45,13.98,0,2.06-.21,4.07-.6,6.02l-13.3-13.3s0,0,0,0l-6.68-6.68h17.14s0,0,0,0Zm-29.84-2.68l12.12-12.12s0-.01.01-.02c6.66,2.09,12.33,6.44,16.12,12.14h-28.25Z"/>
    </g>
    <g id="SvgjsG14410">
      <path class="cls-1" d="m442.69,133.44l-38.78-39.35h-4.74l46.94,47.69v-41.06h-3.41s0,32.71,0,32.71Zm-3.13-7.59v-28.45h9.67v59.64h-1.61l-.38-.38-43.43-44v47.79h9.96v-27.97l-3.51-3.6v28.16h-3.03v-36.03l39.35,39.44h6.07v-66.37h-16.5v28.07l3.41,3.7Zm-38.88,34.61v-55.47l45.42,46.08v-5.03l-48.74-49.21v63.62h3.32Z"/>
    </g>
  </g>
</svg>