<?xml version="1.0" encoding="UTF-8"?>
<svg id="Layer_2" data-name="Layer 2" xmlns="http://www.w3.org/2000/svg" viewBox="0 0 250 56.36">
  <defs>
    <style>
      .cls-1 {
        fill: #111;
      }

      .cls-2 {
        fill: #0f32c9;
      }
    </style>
  </defs>
  <g id="Layer_1-2" data-name="Layer 1">
    <g id="SvgjsG5745">
      <path class="cls-2" d="m28.18,0c15.54,0,28.18,12.64,28.18,28.18s-12.64,28.18-28.18,28.18S0,43.72,0,28.18,12.64,0,28.18,0Zm0,2.3c-1.77,0-3.49.18-5.16.52l17.15,17.15V5.26s0,0,0,0c-3.59-1.88-7.66-2.95-11.99-2.95Zm4.97,13.89h-9.93l-7.02,7.02v9.93l7.02,7.02h9.93l7.02-7.02v-9.93l-7.02-7.02Zm9.32-9.58v24.23l10.4-10.4s0,0,.01-.01c-1.79-5.71-5.52-10.58-10.41-13.83Zm8.64,33.55c1.88-3.59,2.95-7.66,2.95-11.99,0-1.77-.18-3.49-.52-5.16l-11.41,11.41s0,0,0,0l-5.73,5.73h14.7s0,0,0,0Zm-15.18,12.71c5.71-1.79,10.58-5.52,13.83-10.41h-24.23l10.4,10.4s0,0,.01.01Zm-7.74,1.18c1.77,0,3.49-.18,5.16-.52l-17.15-17.15v14.7s0,0,0,0c3.59,1.88,7.66,2.95,11.99,2.95Zm-14.29-4.31v-24.23l-10.4,10.4s0,0-.01.01c1.79,5.71,5.52,10.57,10.41,13.82ZM5.25,16.19c-1.88,3.59-2.95,7.66-2.95,11.99,0,1.77.18,3.49.52,5.16l11.41-11.41s0,0,0,0l5.73-5.73H5.26s0,0,0,0Zm25.59-2.3L20.45,3.5s0,0-.01-.01c-5.71,1.79-10.58,5.52-13.83,10.41h24.23Z"/>
    </g>
    <g id="SvgjsG5746">
      <path class="cls-2" d="m166.35,14.41h5.98l-8.93,22.31h-5.47l-8.93-22.31h5.94l5.72,16.07,5.69-16.07Zm7.87,4.08h5.47v18.22h-5.47v-18.22Zm2.73-1.71c-1.86,0-3.17-1.31-3.17-3.17s1.31-3.13,3.17-3.13,3.13,1.24,3.13,3.13-1.2,3.17-3.13,3.17Zm5.72,19.35v-5.1c2.41.73,5.43.87,7.91.87.98,0,1.75-.04,2.3-.15.51-.07.77-.26.77-.51,0-.11-.04-.18-.11-.29-.36-.36-1.17-.55-1.64-.66s-1.09-.26-1.86-.4c-.62-.11-1.35-.26-2.19-.44-2.84-.62-5.03-2.22-5.03-5.28,0-4.52,4.41-5.87,8.13-5.87,2.33,0,4.67.33,6.96.8v5.14c-2.3-.69-4.88-.87-7.29-.87-.95,0-1.6.04-2,.15s-.62.29-.62.51c0,.33.33.55.95.66.62.15,1.49.33,2.55.51.95.18,1.86.36,2.73.58,2.7.69,4.63,2.15,4.63,5.07,0,4.88-4.92,6.09-8.86,6.09-2.48,0-4.92-.33-7.33-.8h0Zm18.59-17.64h5.47v18.22h-5.47v-18.22Zm2.73-1.71c-1.86,0-3.17-1.31-3.17-3.17s1.31-3.13,3.17-3.13,3.13,1.24,3.13,3.13-1.2,3.17-3.13,3.17Zm15.16,15.05c2.66,0,4.19-1.57,4.19-4.23s-1.53-4.23-4.19-4.23-4.19,1.57-4.19,4.23,1.53,4.23,4.19,4.23Zm0,5.07c-5.61,0-9.66-3.72-9.66-9.29s4.19-9.29,9.66-9.29,9.66,3.72,9.66,9.29-4.23,9.29-9.66,9.29Zm30.83-9.29v9.11h-5.47v-9.11c0-2.51-1.17-4.23-3.83-4.23s-3.83,1.75-3.83,4.23v9.11h-5.47v-9.11c0-5.61,3.86-9.29,9.29-9.29s9.29,3.86,9.29,9.29Z"/>
    </g>
    <g id="SvgjsG5746-2" data-name="SvgjsG5746">
      <path class="cls-1" d="m69.66,14.3h5.47v22.31h-5.47s0-22.31,0-22.31Zm27.92,13.19v9.11h-5.47v-9.11c0-2.51-1.17-4.23-3.83-4.23s-3.83,1.75-3.83,4.23v9.11h-5.47v-9.11c0-5.61,3.86-9.29,9.29-9.29s9.29,3.86,9.29,9.29Zm13.3-8.49v5.07h-4.48v12.54h-5.47v-18.19c0-6.05,4.45-9.33,10.06-9.33.18,0,.44,0,.69.04s.55.11.8.15v5.28c-.18-.04-.4-.07-.66-.11s-.47-.07-.66-.07c-.91,0-1.64.11-2.26.29-1.02.36-1.93,1.06-2.26,2.15-.18.47-.26,1.02-.26,1.57v.62h4.48Zm9.44,8.49v9.11h-5.47v-9.08c0-6.05,4.45-9.33,10.06-9.33.18,0,.44,0,.69.04s.55.11.8.15v5.28c-.18-.04-.4-.07-.66-.11s-.47-.07-.66-.07c-.91,0-1.64.11-2.26.29-1.02.36-1.93,1.06-2.26,2.15-.18.47-.26,1.02-.26,1.57Zm21.25,0c-.15-2.66-1.35-4.23-4.12-4.23-.77,0-1.42.11-1.97.33-1.68.77-2.3,2.19-2.3,3.94,0,.58.07,1.13.26,1.6.55,1.9,2.19,2.59,4.01,2.59,2.77,0,4.12-1.49,4.12-4.23Zm6.93,9.11h-5.47c-.36-.91-.69-1.82-.91-2.77-1.24,2.04-3.13,2.95-5.47,2.95-5.21,0-8.93-4.37-8.93-9.37,0-5.76,4.3-9.22,9.73-9.22,5.8,0,9.44,3.72,9.59,9.29.04.47.04,1.02.04,1.68,0,2.55.4,5.1,1.42,7.44Z"/>
    </g>
    <g id="SvgjsG8162">
      <path d="m73.73,39.69h1.52v6.21h-1.52l-2.43-3.63v3.63h-1.52v-6.21h1.52l2.43,3.63v-3.63Zm11.38,4.95h-2.28l-.45,1.26h-1.65l2.48-6.21h1.52l2.48,6.21h-1.66l-.45-1.26Zm-1.78-1.41h1.29l-.64-1.8-.65,1.8Zm13.07-3.54h1.66l-2.48,6.21h-1.52l-2.48-6.21h1.65l1.59,4.47,1.58-4.47Zm7.15,0h1.52v6.21h-1.52v-6.21Zm13,2.4v3.45c-.72.27-1.62.43-2.39.43-1.98,0-3.31-1.19-3.31-3.14,0-2.14,1.59-3.18,3.54-3.18.13,0,.27,0,.44.01.15.01.31.03.49.04.31.04.63.08.93.17v1.55c-.11-.05-.23-.09-.38-.13-.15-.03-.3-.06-.47-.09-.32-.06-.67-.08-1-.08-1.29,0-2.03.4-2.03,1.71s.68,1.67,1.84,1.67c.12,0,.25-.01.4-.02.13-.01.27-.02.43-.03v-.94h-1.32v-1.41h2.84Zm9.66,2.55h-2.28l-.45,1.26h-1.65l2.48-6.21h1.52l2.48,6.21h-1.66l-.45-1.26Zm-1.78-1.41h1.29l-.64-1.8-.65,1.8Zm8.29-3.54h5.17v1.41h-1.83v4.8h-1.52v-4.8h-1.83v-1.41Zm10.77,0h1.52v6.21h-1.52v-6.21Zm11.47,0h1.52v6.21h-1.52l-2.43-3.63v3.63h-1.52v-6.21h1.52l2.43,3.63v-3.63Zm13.02,2.4v3.45c-.72.27-1.62.43-2.39.43-1.98,0-3.31-1.19-3.31-3.14,0-2.14,1.59-3.18,3.54-3.18.13,0,.27,0,.44.01.15.01.31.03.49.04.31.04.63.08.93.17v1.55c-.11-.05-.23-.09-.38-.13-.15-.03-.3-.06-.47-.09-.32-.06-.67-.08-1-.08-1.29,0-2.03.4-2.03,1.71s.68,1.67,1.84,1.67c.12,0,.25-.01.4-.02.13-.01.27-.02.43-.03v-.94h-1.32v-1.41h2.84Zm12.89-2.4h4.61v1.41h-3.09v.99h2.48v1.41h-2.48v2.39h-1.52v-6.21Zm14.1,0h1.52v3.67c0,1.61-1.16,2.59-2.69,2.59s-2.69-1.03-2.69-2.59v-3.67h1.52v3.67c0,.73.44,1.18,1.17,1.18s1.17-.44,1.17-1.18v-3.67Zm7.07,0h5.17v1.41h-1.83v4.8h-1.52v-4.8h-1.83v-1.41Zm14.58,0h1.52v3.67c0,1.61-1.16,2.59-2.69,2.59s-2.69-1.03-2.69-2.59v-3.67h1.52v3.67c0,.73.44,1.18,1.17,1.18s1.17-.44,1.17-1.18v-3.67Zm8.96,1.43v1.48h1.42c.47,0,.74-.27.74-.74s-.27-.74-.74-.74h-1.42Zm2.3,2.48c.28.39.57.77.86,1.15.28.38.57.76.85,1.15h-1.86c-.37-.49-.72-.97-1.07-1.46-.35-.48-.72-.96-1.08-1.45v2.91h-1.52v-6.21h2.94c1.16,0,2.14.88,2.14,2.05,0,.82-.51,1.54-1.26,1.87h0Zm7.2-3.91h4.61v1.41h-3.09v.99h2.48v1.41h-2.48v.98h3.09v1.41h-4.61v-6.21Zm10.02,6.05v-1.43c.12.03.27.06.45.08.17.03.35.05.55.06s.39.02.59.03.4.02.57.02c.48,0,.81-.03,1.01-.08.19-.05.29-.14.29-.28,0-.12-.09-.21-.18-.28-.33-.22-.73-.31-1.13-.41-1.12-.22-2.14-.67-2.14-1.95,0-1.51,1.43-1.87,2.66-1.87.68,0,1.37.07,2.03.23v1.43c-.1-.03-.23-.05-.4-.08-.17-.02-.34-.04-.54-.06-.4-.04-.77-.06-1.17-.06-.22,0-.69,0-.9.08-.14.05-.23.11-.23.27,0,.08.02.15.06.21.04.07.11.12.2.17.27.15.63.24.93.31.25.06.51.13.77.2.89.24,1.48.74,1.48,1.69,0,1.57-1.56,1.91-2.82,1.91-.69,0-1.41-.05-2.09-.21Z"/>
    </g>
  </g>
</svg>